<?xml version="1.0" standalone="no"?>
<!DOCTYPE svg PUBLIC "-//W3C//DTD SVG 20010904//EN"
 "http://www.w3.org/TR/2001/REC-SVG-20010904/DTD/svg10.dtd">
<svg version="1.0" xmlns="http://www.w3.org/2000/svg"
 width="512.000000pt" height="512.000000pt" viewBox="0 0 512.000000 512.000000"
 preserveAspectRatio="xMidYMid meet">

<g transform="translate(0.000000,512.000000) scale(0.100000,-0.100000)"
fill="#000000" stroke="none">
<path d="M393 5106 c-183 -45 -344 -210 -382 -394 -16 -75 -16 -4229 0 -4304
39 -189 208 -358 397 -397 75 -16 4229 -16 4304 0 189 39 358 208 397 397 16
75 16 4229 0 4304 -39 189 -208 358 -397 397 -81 17 -4248 14 -4319 -3z m4358
-189 c67 -32 141 -108 172 -174 20 -45 22 -64 25 -345 l3 -298 -2391 0 -2391
0 3 298 3 297 28 56 c45 92 135 165 232 190 17 4 982 6 2145 6 l2115 -2 56
-28z m194 -2742 l0 -1750 -28 -56 c-32 -67 -108 -141 -174 -172 l-48 -22
-2135 0 -2135 0 -48 22 c-66 31 -142 105 -174 172 l-28 56 -3 1740 c-1 957 0
1746 3 1752 3 11 479 13 2387 11 l2383 -3 0 -1750z"/>
<path d="M510 4761 c-107 -38 -181 -158 -166 -269 18 -130 123 -222 253 -222
143 0 252 110 253 253 0 178 -171 298 -340 238z m123 -163 c53 -28 64 -92 22
-133 -65 -65 -173 9 -133 91 13 28 50 54 76 54 7 0 23 -5 35 -12z"/>
<path d="M1200 4765 c-101 -32 -172 -131 -173 -240 0 -80 25 -136 83 -188 166
-150 425 -34 423 188 -1 112 -73 209 -177 240 -60 18 -97 18 -156 0z m119
-170 c33 -16 41 -33 41 -80 0 -66 -83 -98 -134 -52 -42 37 -36 106 12 131 34
19 46 19 81 1z"/>
<path d="M1894 4769 c-108 -31 -184 -132 -184 -243 1 -147 108 -256 253 -256
97 0 175 45 220 129 37 67 43 124 22 197 -38 130 -182 211 -311 173z m127
-185 c37 -34 32 -99 -10 -131 -49 -38 -131 6 -131 69 1 75 86 112 141 62z"/>
<path d="M3592 4765 c-131 -41 -205 -179 -167 -311 13 -47 27 -69 70 -111 32
-31 68 -56 92 -62 24 -7 208 -11 516 -11 516 0 508 -1 580 54 42 32 85 110 93
168 10 73 -19 154 -74 209 -79 78 -84 79 -611 78 -351 0 -466 -3 -499 -14z
m968 -168 c53 -27 62 -96 18 -137 -21 -19 -33 -20 -483 -20 l-462 0 -20 23
c-11 12 -23 30 -26 40 -10 26 18 86 45 97 38 15 898 12 928 -3z"/>
<path d="M781 3658 c-55 -15 -118 -65 -148 -116 -26 -44 -28 -57 -33 -189 -5
-132 -7 -143 -29 -167 -14 -14 -35 -26 -48 -26 -81 0 -123 -90 -68 -145 13
-14 33 -25 44 -25 34 0 72 -23 87 -51 10 -20 14 -64 14 -146 0 -102 3 -125 24
-168 40 -86 121 -143 210 -146 78 -3 122 49 96 115 -10 27 -61 56 -98 56 -10
0 -27 9 -38 21 -16 18 -20 42 -24 158 -5 124 -8 141 -33 191 l-28 56 28 49
c25 46 28 60 31 180 2 71 8 140 14 151 11 24 48 44 79 44 30 0 79 53 79 85 0
16 -12 38 -29 56 -32 31 -66 36 -130 17z"/>
<path d="M1139 3641 c-37 -38 -38 -79 -3 -115 l27 -26 414 0 415 0 29 29 c38
38 38 74 0 112 l-29 29 -412 0 -412 0 -29 -29z"/>
<path d="M1135 3215 c-35 -34 -33 -78 4 -116 l29 -29 617 0 c651 0 662 1 679
45 15 39 6 83 -20 104 -26 21 -34 21 -656 21 l-629 0 -24 -25z"/>
<path d="M2676 3219 c-19 -15 -26 -30 -26 -54 0 -83 26 -95 214 -95 141 0 145
1 175 26 40 33 43 83 6 119 -24 24 -28 25 -183 25 -146 0 -162 -2 -186 -21z"/>
<path d="M3265 3208 c-31 -36 -29 -79 6 -113 19 -19 35 -20 383 -23 231 -2
373 1 390 8 30 11 59 68 49 97 -3 10 -15 28 -26 41 l-20 22 -378 0 -377 0 -27
-32z"/>
<path d="M4295 3215 c-17 -16 -25 -35 -25 -57 1 -61 40 -88 125 -88 85 0 124
27 125 88 0 22 -8 41 -25 57 -21 22 -33 25 -100 25 -67 0 -79 -3 -100 -25z"/>
<path d="M1164 2810 c-55 -22 -70 -95 -29 -135 l24 -25 421 0 c405 0 421 1
440 20 45 45 33 112 -25 135 -28 12 -105 15 -422 14 -213 0 -398 -4 -409 -9z"/>
<path d="M2274 2810 c-55 -22 -70 -95 -29 -135 l24 -25 591 0 c574 0 591 1
610 20 45 45 33 112 -25 135 -29 13 -126 15 -592 14 -307 0 -568 -4 -579 -9z"/>
<path d="M3724 2810 c-55 -22 -70 -95 -29 -135 21 -22 33 -25 103 -25 69 0 81
3 100 23 23 25 29 75 12 107 -18 35 -130 53 -186 30z"/>
<path d="M3205 2378 c-52 -28 -62 -92 -20 -133 23 -24 30 -25 140 -25 115 0
117 0 146 29 17 18 29 40 29 56 0 16 -12 38 -29 56 -29 29 -31 29 -138 29 -59
0 -117 -6 -128 -12z"/>
<path d="M3699 2361 c-37 -38 -38 -79 -3 -115 l27 -26 414 0 415 0 29 29 c38
38 38 74 0 112 l-29 29 -412 0 -412 0 -29 -29z"/>
<path d="M1249 2272 c-60 -31 -113 -93 -129 -150 -5 -20 -10 -134 -10 -252 0
-195 2 -219 21 -260 45 -101 126 -154 234 -155 59 0 78 5 122 29 111 61 171
218 108 281 -54 54 -145 13 -145 -65 0 -30 -53 -80 -85 -80 -16 0 -38 12 -56
29 l-29 29 0 202 c0 200 0 201 25 225 51 52 145 16 145 -54 0 -78 97 -115 147
-56 22 25 25 36 20 81 -18 177 -209 279 -368 196z"/>
<path d="M1932 2274 c-110 -55 -163 -178 -128 -299 31 -103 140 -185 248 -185
38 0 78 -40 78 -79 0 -74 -32 -91 -175 -91 -104 0 -107 -1 -136 -29 -38 -38
-38 -74 0 -112 29 -29 31 -29 143 -29 72 0 133 6 164 15 211 63 237 366 40
467 -21 11 -66 24 -99 28 -32 5 -67 16 -77 25 -40 36 -32 111 13 133 12 6 72
13 134 14 102 3 114 5 137 27 34 32 36 88 3 119 -22 20 -33 22 -158 22 -125 0
-139 -2 -187 -26z"/>
<path d="M2634 2286 c-49 -22 -115 -87 -136 -134 -36 -81 -22 -191 36 -267 31
-41 112 -84 172 -91 90 -12 126 -55 99 -120 -19 -45 -46 -54 -170 -54 -94 0
-106 -2 -129 -22 -38 -35 -39 -86 -1 -123 23 -24 30 -25 143 -25 137 0 189 14
250 66 80 68 108 184 69 286 -32 84 -136 158 -221 158 -34 0 -82 24 -90 45
-13 36 -6 82 17 103 21 20 34 22 130 22 118 0 151 10 173 52 17 33 11 63 -19
96 -19 21 -28 22 -156 22 -92 -1 -146 -5 -167 -14z"/>
<path d="M3185 1935 c-42 -41 -31 -105 22 -133 29 -16 211 -15 243 1 55 28 64
94 18 137 -19 18 -35 20 -140 20 -113 0 -120 -1 -143 -25z"/>
<path d="M3695 1935 c-35 -34 -33 -78 4 -116 l29 -29 146 0 c79 0 156 4 171
10 29 11 58 69 48 97 -3 10 -15 28 -26 41 -20 21 -27 22 -184 22 -161 0 -164
0 -188 -25z"/>
<path d="M4230 1697 c-32 -16 -54 -61 -46 -93 10 -37 38 -60 83 -67 69 -11 77
-30 83 -186 5 -124 8 -141 33 -191 l28 -56 -28 -49 c-26 -47 -28 -59 -31 -187
l-4 -138 -30 -25 c-16 -14 -42 -25 -57 -25 -56 0 -97 -70 -70 -119 21 -38 57
-53 109 -45 56 8 107 33 148 75 56 57 66 91 72 239 3 80 10 144 17 157 13 21
20 25 78 38 72 16 101 97 52 143 -13 12 -27 22 -33 22 -5 0 -26 5 -46 11 -57
15 -68 46 -68 180 0 142 -12 181 -75 246 -38 39 -63 55 -104 67 -65 19 -78 20
-111 3z"/>
<path d="M3220 1533 c-58 -21 -77 -88 -39 -137 l20 -26 423 0 423 0 20 23 c29
32 34 52 21 88 -20 57 -35 59 -465 58 -213 0 -395 -3 -403 -6z"/>
<path d="M1139 1081 c-37 -38 -38 -79 -3 -115 l27 -26 328 0 328 0 27 24 c39
33 39 89 0 122 l-27 24 -325 0 -326 0 -29 -29z"/>
<path d="M2095 1098 c-51 -29 -61 -93 -20 -133 l24 -25 671 0 672 0 29 29 c38
38 38 74 0 112 l-29 29 -664 0 c-480 -1 -669 -4 -683 -12z"/>
<path d="M3699 1081 c-37 -38 -38 -79 -3 -115 27 -26 27 -26 185 -26 152 0
159 1 185 24 38 32 38 90 -1 123 -25 22 -34 23 -181 23 l-156 0 -29 -29z"/>
<path d="M1135 655 c-35 -34 -33 -78 4 -116 l29 -29 146 0 c79 0 156 4 171 10
29 11 58 69 48 97 -3 10 -15 28 -26 41 -20 21 -27 22 -184 22 -161 0 -164 0
-188 -25z"/>
<path d="M1735 655 c-27 -27 -33 -79 -12 -106 28 -37 50 -39 367 -39 373 0
380 2 380 95 0 24 -7 39 -26 54 -26 20 -38 21 -356 21 l-329 0 -24 -25z"/>
<path d="M2676 659 c-26 -21 -35 -65 -20 -104 17 -44 31 -45 629 -45 598 0
612 1 629 45 15 39 6 83 -20 104 -26 21 -35 21 -609 21 -574 0 -583 0 -609
-21z"/>
</g>
</svg>
