<?xml version="1.0" standalone="no"?>
<!DOCTYPE svg PUBLIC "-//W3C//DTD SVG 20010904//EN"
 "http://www.w3.org/TR/2001/REC-SVG-20010904/DTD/svg10.dtd">
<svg version="1.0" xmlns="http://www.w3.org/2000/svg"
 width="512.000000pt" height="512.000000pt" viewBox="0 0 512.000000 512.000000"
 preserveAspectRatio="xMidYMid meet">

<g transform="translate(0.000000,512.000000) scale(0.100000,-0.100000)"
fill="#000000" stroke="none">
<path d="M393 5106 c-183 -45 -344 -210 -382 -394 -16 -75 -16 -4229 0 -4304
39 -189 208 -358 397 -397 75 -16 4229 -16 4304 0 189 39 358 208 397 397 16
75 16 4229 0 4304 -39 189 -208 358 -397 397 -81 17 -4248 14 -4319 -3z m4358
-189 c67 -32 141 -108 172 -174 20 -45 22 -64 25 -345 l3 -298 -2391 0 -2391
0 3 298 3 297 28 56 c45 92 135 165 232 190 17 4 982 6 2145 6 l2115 -2 56
-28z m194 -2742 l0 -1750 -28 -56 c-32 -67 -108 -141 -174 -172 l-48 -22
-2135 0 -2135 0 -48 22 c-66 31 -142 105 -174 172 l-28 56 -3 1740 c-1 957 0
1746 3 1752 3 11 479 13 2387 11 l2383 -3 0 -1750z"/>
<path d="M510 4761 c-107 -38 -181 -158 -166 -269 18 -130 123 -222 253 -222
143 0 252 110 253 253 0 178 -171 298 -340 238z m123 -163 c53 -28 64 -92 22
-133 -65 -65 -173 9 -133 91 13 28 50 54 76 54 7 0 23 -5 35 -12z"/>
<path d="M1200 4765 c-101 -32 -172 -131 -173 -240 0 -80 25 -136 83 -188 166
-150 425 -34 423 188 -1 112 -73 209 -177 240 -60 18 -97 18 -156 0z m119
-170 c33 -16 41 -33 41 -80 0 -66 -83 -98 -134 -52 -42 37 -36 106 12 131 34
19 46 19 81 1z"/>
<path d="M1894 4769 c-108 -31 -184 -132 -184 -243 1 -147 108 -256 253 -256
97 0 175 45 220 129 37 67 43 124 22 197 -38 130 -182 211 -311 173z m127
-185 c37 -34 32 -99 -10 -131 -49 -38 -131 6 -131 69 1 75 86 112 141 62z"/>
<path d="M3592 4765 c-131 -41 -205 -179 -167 -311 13 -47 27 -69 70 -111 32
-31 68 -56 92 -62 24 -7 208 -11 516 -11 516 0 508 -1 580 54 42 32 85 110 93
168 10 73 -19 154 -74 209 -79 78 -84 79 -611 78 -351 0 -466 -3 -499 -14z
m968 -168 c53 -27 62 -96 18 -137 -21 -19 -33 -20 -483 -20 l-462 0 -20 23
c-11 12 -23 30 -26 40 -10 26 18 86 45 97 38 15 898 12 928 -3z"/>
<path d="M814 3657 c-31 -17 -463 -537 -470 -566 -4 -13 0 -36 9 -55 9 -17
114 -148 234 -291 199 -238 221 -260 252 -263 19 -2 45 2 57 9 29 15 48 61 39
91 -4 13 -95 128 -202 256 -175 210 -193 235 -180 250 116 137 367 443 375
459 19 35 14 63 -17 94 -31 31 -62 36 -97 16z"/>
<path d="M1139 3641 c-37 -38 -38 -79 -3 -115 l27 -26 414 0 415 0 29 29 c38
38 38 74 0 112 l-29 29 -412 0 -412 0 -29 -29z"/>
<path d="M1135 3215 c-35 -34 -33 -78 4 -116 l29 -29 617 0 c651 0 662 1 679
45 15 39 6 83 -20 104 -26 21 -34 21 -656 21 l-629 0 -24 -25z"/>
<path d="M2676 3219 c-19 -15 -26 -30 -26 -54 0 -83 26 -95 214 -95 141 0 145
1 175 26 40 33 43 83 6 119 -24 24 -28 25 -183 25 -146 0 -162 -2 -186 -21z"/>
<path d="M3265 3208 c-31 -36 -29 -79 6 -113 19 -19 35 -20 383 -23 231 -2
373 1 390 8 30 11 59 68 49 97 -3 10 -15 28 -26 41 l-20 22 -378 0 -377 0 -27
-32z"/>
<path d="M4295 3215 c-17 -16 -25 -35 -25 -57 1 -61 40 -88 125 -88 85 0 124
27 125 88 0 22 -8 41 -25 57 -21 22 -33 25 -100 25 -67 0 -79 -3 -100 -25z"/>
<path d="M1164 2810 c-55 -22 -70 -95 -29 -135 l24 -25 421 0 c405 0 421 1
440 20 45 45 33 112 -25 135 -28 12 -105 15 -422 14 -213 0 -398 -4 -409 -9z"/>
<path d="M2274 2810 c-55 -22 -70 -95 -29 -135 l24 -25 591 0 c574 0 591 1
610 20 45 45 33 112 -25 135 -29 13 -126 15 -592 14 -307 0 -568 -4 -579 -9z"/>
<path d="M3724 2810 c-55 -22 -70 -95 -29 -135 21 -22 33 -25 103 -25 69 0 81
3 100 23 23 25 29 75 12 107 -18 35 -130 53 -186 30z"/>
<path d="M3615 2367 c-39 -33 -39 -91 -1 -123 l27 -24 455 0 456 0 29 29 c17
18 29 40 29 56 0 16 -12 38 -29 56 l-29 29 -456 0 -455 0 -26 -23z"/>
<path d="M1135 2275 l-25 -24 0 -371 0 -372 29 -29 c38 -38 74 -38 112 0 l29
29 0 141 0 141 85 0 85 0 0 -141 0 -141 29 -29 c31 -31 59 -36 94 -17 46 24
46 23 47 416 l0 373 -25 24 c-30 31 -83 33 -116 6 -23 -18 -24 -25 -27 -170
l-3 -151 -85 0 -84 0 0 145 c0 142 -1 147 -25 170 -16 17 -35 25 -60 25 -25 0
-44 -8 -60 -25z"/>
<path d="M1832 2293 c-7 -3 -19 -18 -28 -35 -35 -67 17 -128 109 -128 l47 0 0
-302 c0 -222 4 -310 13 -328 27 -54 94 -63 137 -20 19 19 20 35 20 334 l0 314
60 4 c45 3 66 10 85 28 33 31 34 88 2 118 -22 21 -31 22 -228 21 -112 0 -210
-3 -217 -6z"/>
<path d="M2499 2274 l-24 -26 -3 -356 c-2 -325 -1 -360 15 -392 21 -41 60 -58
101 -44 50 17 62 60 62 233 l0 154 23 -21 c34 -32 91 -30 122 4 l25 27 0 -175
c0 -198 5 -214 71 -224 29 -5 41 -1 65 19 l29 25 3 359 c2 197 0 368 -3 381
-9 38 -41 62 -84 62 -49 0 -70 -24 -126 -138 -21 -45 -42 -82 -45 -82 -3 0
-24 37 -45 82 -55 113 -77 138 -124 138 -27 0 -44 -7 -62 -26z"/>
<path d="M3185 2275 l-25 -24 0 -370 c0 -203 3 -377 6 -386 13 -33 59 -45 169
-45 104 0 107 1 136 29 17 18 29 40 29 56 0 16 -12 38 -29 56 -26 25 -37 29
-85 29 l-56 0 0 305 c0 364 -3 375 -91 375 -18 0 -39 -10 -54 -25z"/>
<path d="M3613 1938 c-11 -13 -23 -31 -26 -41 -10 -28 19 -86 48 -97 15 -6
107 -10 205 -10 98 0 190 4 205 10 29 11 58 69 48 97 -3 10 -15 28 -26 41 -20
21 -26 22 -227 22 -201 0 -207 -1 -227 -22z"/>
<path d="M4211 1681 c-27 -27 -35 -64 -20 -93 6 -12 97 -126 202 -251 172
-207 188 -229 175 -245 -114 -133 -368 -443 -376 -459 -19 -35 -14 -63 17 -94
35 -34 68 -37 104 -9 14 11 124 138 244 282 195 234 218 265 218 297 0 33 -24
65 -230 311 -229 274 -230 275 -272 278 -32 2 -47 -2 -62 -17z"/>
<path d="M3724 1530 c-55 -22 -70 -95 -29 -135 24 -25 27 -25 188 -25 157 0
164 1 184 23 30 33 34 54 19 91 -9 23 -24 37 -46 45 -38 13 -285 14 -316 1z"/>
<path d="M1139 1081 c-37 -38 -38 -79 -3 -115 l27 -26 328 0 328 0 27 24 c39
33 39 89 0 122 l-27 24 -325 0 -326 0 -29 -29z"/>
<path d="M2095 1098 c-51 -29 -61 -93 -20 -133 l24 -25 671 0 672 0 29 29 c38
38 38 74 0 112 l-29 29 -664 0 c-480 -1 -669 -4 -683 -12z"/>
<path d="M3699 1081 c-37 -38 -38 -79 -3 -115 27 -26 27 -26 185 -26 152 0
159 1 185 24 38 32 38 90 -1 123 -25 22 -34 23 -181 23 l-156 0 -29 -29z"/>
<path d="M1135 655 c-35 -34 -33 -78 4 -116 l29 -29 146 0 c79 0 156 4 171 10
29 11 58 69 48 97 -3 10 -15 28 -26 41 -20 21 -27 22 -184 22 -161 0 -164 0
-188 -25z"/>
<path d="M1735 655 c-27 -27 -33 -79 -12 -106 28 -37 50 -39 367 -39 373 0
380 2 380 95 0 24 -7 39 -26 54 -26 20 -38 21 -356 21 l-329 0 -24 -25z"/>
<path d="M2676 659 c-26 -21 -35 -65 -20 -104 17 -44 31 -45 629 -45 598 0
612 1 629 45 15 39 6 83 -20 104 -26 21 -35 21 -609 21 -574 0 -583 0 -609
-21z"/>
</g>
</svg>
