<?xml version="1.0" standalone="no"?>
<!DOCTYPE svg PUBLIC "-//W3C//DTD SVG 20010904//EN"
 "http://www.w3.org/TR/2001/REC-SVG-20010904/DTD/svg10.dtd">
<svg version="1.0" xmlns="http://www.w3.org/2000/svg"
 width="512.000000pt" height="512.000000pt" viewBox="0 0 512.000000 512.000000"
 preserveAspectRatio="xMidYMid meet">

<g transform="translate(0.000000,512.000000) scale(0.100000,-0.100000)"
fill="#000000" stroke="none">
<path d="M160 5107 c-49 -16 -133 -102 -148 -153 -18 -60 -18 -4728 0 -4788
16 -55 99 -138 154 -154 32 -9 576 -12 2396 -12 2654 0 2412 -8 2491 80 24 26
49 66 55 88 17 57 17 4727 0 4784 -6 22 -31 62 -55 88 -79 88 164 80 -2497 79
-1691 -1 -2371 -4 -2396 -12z m4775 -172 l25 -24 0 -296 0 -295 -2400 0 -2400
0 0 295 0 296 25 24 24 25 2351 0 2351 0 24 -25z m25 -2750 l0 -1976 -25 -24
-24 -25 -2351 0 -2351 0 -24 25 -25 24 0 1976 0 1975 2400 0 2400 0 0 -1975z"/>
<path d="M400 4640 l0 -80 80 0 80 0 0 80 0 80 -80 0 -80 0 0 -80z"/>
<path d="M720 4640 l0 -80 80 0 80 0 0 80 0 80 -80 0 -80 0 0 -80z"/>
<path d="M1120 4640 l0 -80 1800 0 1800 0 0 80 0 80 -1800 0 -1800 0 0 -80z"/>
<path d="M3238 3790 c-53 -28 -101 -58 -106 -67 -6 -10 -17 -79 -27 -153 -9
-74 -19 -143 -23 -153 -6 -14 -150 -87 -173 -87 -3 0 -61 43 -130 95 -80 61
-133 95 -149 95 -38 0 -210 -60 -230 -80 -26 -26 -85 -211 -77 -241 5 -19 154
-225 222 -307 2 -2 92 65 119 88 4 5 -33 63 -83 129 l-92 121 12 40 c14 47 21
53 71 69 l38 13 133 -101 c73 -56 143 -101 154 -101 11 0 56 18 99 39 44 22
102 46 131 54 102 30 101 27 129 248 l17 137 44 21 43 21 43 -21 44 -21 17
-137 c28 -221 27 -218 129 -248 29 -8 87 -32 131 -54 43 -21 88 -39 99 -39 11
0 81 45 154 101 l133 101 38 -13 c50 -16 57 -22 71 -69 l12 -41 -101 -132
c-55 -74 -100 -143 -100 -155 0 -12 18 -56 39 -99 21 -43 46 -101 54 -130 31
-103 29 -102 243 -129 l141 -17 22 -43 21 -44 -21 -43 -21 -44 -137 -17 c-221
-28 -218 -27 -248 -129 -8 -29 -32 -87 -54 -131 -21 -43 -39 -88 -39 -99 0
-11 45 -81 101 -154 l101 -133 -13 -38 c-16 -50 -22 -57 -69 -71 l-41 -12
-132 101 c-73 55 -143 100 -154 100 -11 0 -56 -17 -99 -39 -44 -21 -97 -44
-119 -51 -72 -21 -96 -33 -106 -52 -9 -17 -61 -369 -55 -375 4 -5 149 -23 152
-20 2 2 11 57 19 123 21 156 23 164 43 171 9 3 47 19 85 35 37 16 73 26 80 22
6 -4 64 -47 128 -96 72 -55 125 -88 140 -88 37 0 209 60 229 80 20 20 80 193
80 230 0 16 -34 69 -95 149 -52 68 -95 126 -95 130 0 23 73 167 87 173 10 3
79 14 153 23 74 9 143 21 153 26 20 12 117 200 117 229 0 29 -97 217 -117 229
-10 5 -79 17 -153 26 -74 9 -143 20 -153 23 -14 6 -87 150 -87 173 0 4 43 62
95 130 61 80 95 133 95 149 0 37 -60 210 -80 230 -20 20 -192 80 -229 80 -15
0 -68 -33 -140 -88 -64 -49 -122 -92 -128 -96 -7 -4 -44 7 -82 24 -38 16 -74
30 -80 30 -18 0 -27 36 -46 180 -9 74 -21 143 -27 153 -11 22 -200 117 -230
116 -13 0 -67 -22 -120 -49z"/>
<path d="M3255 3031 c-176 -39 -320 -149 -395 -305 -35 -74 -60 -165 -60 -223
0 -22 3 -23 79 -23 l79 0 7 55 c9 75 65 183 121 235 25 23 75 56 112 73 61 29
76 32 163 32 90 0 99 -2 171 -37 91 -45 147 -103 191 -196 29 -61 32 -76 32
-162 0 -86 -3 -101 -32 -162 -17 -37 -50 -87 -73 -112 -52 -56 -160 -112 -235
-121 l-55 -7 0 -80 0 -81 61 7 c222 25 400 174 475 396 14 40 19 84 19 160 0
76 -5 120 -19 160 -80 238 -271 386 -511 395 -49 2 -108 0 -130 -4z"/>
<path d="M1360 2880 l0 -80 400 0 400 0 0 80 0 80 -400 0 -400 0 0 -80z"/>
<path d="M720 2560 l0 -80 880 0 880 0 0 80 0 80 -880 0 -880 0 0 -80z"/>
<path d="M1840 1779 c0 -398 -3 -553 -12 -583 -16 -54 -90 -128 -144 -144 -63
-18 -278 -16 -320 4 -64 31 -79 64 -82 192 l-4 112 -80 0 -80 0 4 -122 c4
-143 22 -196 90 -265 71 -72 119 -87 297 -91 135 -3 161 -1 220 18 123 39 210
126 250 248 20 60 21 84 21 617 l0 555 -80 0 -80 0 0 -541z"/>
<path d="M2546 2310 c-63 -16 -153 -70 -197 -117 -22 -24 -55 -74 -72 -111
-29 -61 -32 -76 -32 -163 0 -90 2 -99 37 -171 67 -135 179 -210 339 -226 102
-11 147 -31 198 -88 87 -99 82 -224 -14 -319 -70 -71 -145 -91 -239 -63 -78
23 -166 135 -166 212 0 13 -13 16 -81 16 l-82 0 7 -52 c9 -71 55 -167 107
-222 26 -29 70 -60 117 -84 72 -35 81 -37 172 -37 91 0 100 2 172 37 91 45
147 103 191 196 29 61 32 76 32 163 0 90 -2 99 -37 171 -67 135 -179 210 -339
226 -102 11 -147 31 -198 88 -87 99 -82 224 14 319 51 52 102 75 165 75 115 0
240 -116 240 -224 0 -13 13 -16 81 -16 l82 0 -7 53 c-9 74 -66 186 -122 236
-70 65 -158 102 -252 107 -42 2 -94 -1 -116 -6z"/>
</g>
</svg>
