<?xml version="1.0" standalone="no"?>
<!DOCTYPE svg PUBLIC "-//W3C//DTD SVG 20010904//EN"
 "http://www.w3.org/TR/2001/REC-SVG-20010904/DTD/svg10.dtd">
<svg version="1.0" xmlns="http://www.w3.org/2000/svg"
 width="512.000000pt" height="511.000000pt" viewBox="0 0 512.000000 511.000000"
 preserveAspectRatio="xMidYMid meet">

<g transform="translate(0.000000,511.000000) scale(0.100000,-0.100000)"
fill="#000000" stroke="none">
<path d="M1355 5061 c-49 -9 -93 -31 -121 -63 -38 -41 -1214 -2089 -1226
-2134 -9 -34 -9 -54 0 -88 6 -24 212 -391 457 -816 l445 -771 0 -482 0 -482
24 -50 c28 -60 66 -97 126 -124 44 -20 60 -21 1118 -21 1059 0 1072 0 1092 20
27 27 26 81 -1 106 -20 18 -57 19 -1091 24 l-1070 5 -24 30 -24 30 0 575 c0
638 -3 607 66 636 50 21 2818 21 2868 0 69 -29 66 2 66 -636 l0 -575 -24 -30
-24 -30 -245 -5 c-223 -5 -247 -7 -266 -24 -27 -25 -28 -79 -1 -106 19 -19 33
-20 268 -20 227 0 251 2 292 21 60 27 98 64 126 124 l24 50 0 482 0 482 445
771 c245 425 451 792 457 816 9 34 9 54 1 88 -11 40 -878 1555 -906 1583 -6 6
-24 15 -39 18 -39 10 -93 -43 -84 -81 4 -15 203 -366 443 -782 240 -416 438
-764 441 -774 4 -16 -209 -392 -675 -1195 l-95 -163 -56 59 c-31 32 -64 61
-71 63 -11 3 45 108 204 384 465 806 465 806 465 841 0 19 -7 48 -16 66 -40
76 -1028 1784 -1043 1801 -40 47 -16 46 -1121 46 -1105 0 -1081 1 -1121 -46
-15 -17 -1004 -1726 -1043 -1801 -20 -41 -20 -85 0 -126 47 -90 428 -745 444
-761 24 -24 74 -25 100 -1 42 38 32 63 -195 454 l-214 371 507 880 507 879
1015 0 1015 0 507 -879 507 -880 -346 -600 -346 -600 -1337 0 -1336 0 -52 89
c-64 110 -75 121 -117 121 -35 0 -75 -36 -75 -68 0 -8 19 -49 41 -91 31 -56
38 -76 28 -79 -8 -3 -39 -31 -71 -63 l-56 -59 -22 38 c-177 299 -745 1292
-747 1307 -2 12 222 410 594 1055 l598 1035 1215 0 1215 0 86 -149 c47 -82 94
-155 104 -162 45 -33 115 2 115 57 0 26 -157 307 -194 347 -11 13 -39 34 -61
45 l-40 22 -1195 1 c-657 1 -1213 -1 -1235 -5z"/>
<path d="M2005 4167 c-63 -21 -97 -42 -136 -84 -83 -89 -111 -179 -111 -353 0
-69 4 -148 10 -177 l9 -51 -66 -26 c-171 -67 -327 -192 -377 -301 -38 -83 -36
-175 5 -260 44 -89 140 -176 267 -242 55 -28 115 -56 135 -62 l36 -12 -9 -52
c-14 -80 -13 -275 1 -337 29 -120 110 -230 196 -266 58 -24 143 -28 215 -10
86 21 228 93 313 156 l67 52 68 -52 c84 -63 226 -135 312 -156 71 -18 157 -14
214 10 43 18 112 80 142 127 57 92 79 249 61 442 -9 87 -9 88 15 94 12 4 71
31 131 61 136 69 232 154 278 247 41 85 43 177 5 260 -50 109 -206 234 -377
301 l-66 26 9 51 c6 29 10 108 10 177 0 178 -35 283 -123 367 -135 128 -363
97 -600 -81 -41 -31 -76 -56 -79 -56 -3 0 -38 25 -79 56 -169 127 -363 188
-476 151z m197 -163 c71 -25 238 -133 238 -154 0 -6 -24 -36 -53 -68 -28 -31
-74 -85 -100 -118 -47 -60 -50 -62 -105 -69 -31 -3 -101 -15 -155 -27 -54 -11
-101 -17 -103 -15 -12 12 -21 181 -14 250 14 122 57 195 126 217 34 10 113 3
166 -16z m879 16 c72 -20 115 -92 129 -218 7 -69 -2 -237 -14 -249 -2 -2 -49
4 -103 15 -54 12 -124 24 -155 27 -55 7 -58 9 -105 69 -26 33 -72 87 -100 118
-29 32 -53 62 -53 68 0 26 172 133 258 161 66 21 94 23 143 9z m-460 -337 l52
-58 -56 -3 c-32 -2 -82 -2 -114 0 l-56 3 52 58 c29 31 57 57 61 57 4 0 32 -26
61 -57z m143 -220 c36 -6 43 -13 97 -97 32 -50 85 -142 116 -203 l58 -113 -57
-112 c-80 -158 -170 -293 -199 -301 -31 -9 -407 -9 -438 0 -29 8 -119 143
-199 301 l-57 112 58 113 c31 61 84 153 116 204 48 74 65 92 88 96 46 7 375 7
417 0z m-658 -58 c-9 -13 -32 -54 -52 -90 -20 -36 -39 -67 -43 -70 -10 -5 -57
143 -48 151 8 9 105 32 136 33 23 1 23 0 7 -24z m1017 4 c20 -5 37 -15 37 -22
0 -7 -10 -44 -23 -82 l-24 -69 -43 74 c-24 41 -50 86 -59 99 l-15 24 44 -7
c25 -4 62 -11 83 -17z m-1278 -160 c18 -52 42 -117 53 -146 l21 -52 -33 -88
c-19 -48 -42 -114 -52 -147 -10 -32 -24 -61 -31 -63 -7 -3 -57 16 -110 43
-167 82 -259 195 -233 285 15 50 50 99 104 141 53 42 223 131 240 125 5 -2 24
-46 41 -98z m1585 51 c131 -66 206 -138 230 -219 26 -90 -66 -203 -233 -285
-53 -27 -103 -46 -110 -43 -7 2 -21 31 -31 63 -10 33 -33 99 -52 147 l-34 88
31 77 c17 42 40 106 51 142 11 36 22 69 25 73 6 11 35 1 123 -43z m-1366 -534
c31 -52 56 -97 56 -99 0 -6 -147 27 -155 35 -6 6 33 158 41 158 2 0 28 -42 58
-94z m1093 -60 c-3 -9 -157 -47 -157 -39 0 2 26 48 57 101 l57 97 23 -74 c13
-41 22 -79 20 -85z m-1132 -175 c50 -11 118 -23 152 -27 61 -6 63 -8 103 -60
23 -30 70 -86 105 -125 l64 -71 -27 -22 c-94 -78 -220 -141 -300 -152 -140
-18 -214 83 -215 295 0 100 10 181 22 181 4 0 47 -9 96 -19z m1181 -23 c4 -24
7 -86 7 -139 -1 -212 -75 -313 -215 -295 -80 11 -206 74 -300 152 l-27 22 64
71 c35 39 82 95 105 125 40 53 42 54 103 60 34 4 98 15 142 25 116 27 112 27
121 -21z m-543 -42 c-4 -8 -29 -37 -55 -65 l-48 -50 -47 50 c-77 82 -79 79 47
79 92 0 110 -2 103 -14z"/>
<path d="M2500 3281 c-112 -36 -174 -119 -174 -231 0 -102 48 -176 144 -219
110 -50 243 0 303 114 28 52 29 155 3 205 -26 49 -64 88 -110 112 -43 22 -128
32 -166 19z m99 -156 c53 -27 63 -102 19 -142 -26 -23 -90 -23 -116 0 -43 40
-34 114 17 142 33 18 46 18 80 0z"/>
<path d="M1341 1211 c-21 -21 -21 -28 -21 -394 0 -423 -1 -417 71 -417 79 0
79 0 79 180 l0 160 48 0 49 0 82 -160 c45 -88 89 -167 97 -175 9 -8 26 -15 39
-15 30 0 85 46 85 70 0 10 -31 76 -69 147 -89 163 -87 159 -59 166 32 9 74 51
99 99 16 31 21 60 21 113 0 119 -45 190 -142 225 -20 7 -103 15 -196 18 -155
4 -163 3 -183 -17z m302 -122 c21 -5 44 -21 54 -35 20 -32 23 -112 4 -146 -19
-38 -52 -48 -146 -48 l-85 0 0 120 0 120 68 0 c37 0 84 -5 105 -11z"/>
<path d="M3552 1154 c-22 -15 -22 -16 -22 -328 0 -308 0 -314 23 -346 41 -62
69 -75 166 -78 72 -3 91 -1 104 13 18 17 22 61 9 82 -11 18 -59 33 -103 33
-53 0 -59 19 -59 171 l0 119 73 0 c84 0 97 8 97 62 0 48 -18 58 -104 58 l-66
0 0 99 c0 92 -2 101 -22 115 -12 9 -34 16 -48 16 -14 0 -36 -7 -48 -16z"/>
<path d="M2065 916 c-102 -48 -135 -109 -135 -251 0 -137 31 -199 125 -248 56
-29 198 -36 257 -12 81 32 110 82 70 118 -24 22 -30 21 -104 -4 -102 -34 -187
-1 -203 79 l-7 32 145 0 c183 0 192 5 192 104 0 56 -5 71 -30 107 -66 93 -202
126 -310 75z m141 -96 c23 0 64 -47 64 -73 0 -30 -20 -37 -118 -37 -83 0 -92
8 -68 63 11 27 23 39 48 46 18 5 39 7 46 5 8 -2 20 -4 28 -4z"/>
<path d="M2576 925 c-75 -29 -95 -69 -58 -116 19 -22 19 -22 63 -5 60 24 132
25 158 2 24 -22 47 -85 35 -96 -5 -4 -47 -10 -94 -12 -149 -7 -210 -54 -210
-161 0 -60 27 -112 70 -134 59 -30 166 -7 214 46 25 28 36 27 36 -4 0 -28 25
-45 67 -45 63 0 65 6 61 216 -3 189 -3 191 -31 232 -39 60 -94 85 -192 89 -54
2 -93 -2 -119 -12z m200 -327 c-18 -90 -142 -131 -162 -54 -13 52 35 82 135
85 33 1 33 0 27 -31z"/>
<path d="M3168 930 c-58 -17 -97 -51 -124 -105 -25 -52 -26 -61 -23 -179 4
-119 5 -126 34 -167 43 -61 92 -83 193 -88 73 -3 89 0 137 24 59 28 76 57 56
94 -19 35 -46 43 -87 26 -56 -23 -127 -20 -159 8 -48 41 -48 195 0 243 29 28
89 32 153 10 38 -14 43 -13 66 5 31 24 35 68 9 91 -48 43 -177 62 -255 38z"/>
</g>
</svg>
